<svg id="0f103014-71de-45d9-95b5-c0027158fecf" data-name="圖層 2" xmlns="http://www.w3.org/2000/svg" viewBox="0 0 115.65 39.4"><defs><style>.\38 68f046e-c2db-4cd8-a70a-6719474a04d3{fill:#fff;}</style></defs><title>25sprout</title><path class="868f046e-c2db-4cd8-a70a-6719474a04d3" d="M589.62,3216.23v3H575.45l5.35-6.77a67.12,67.12,0,0,0,4.5-5.92,4.28,4.28,0,0,0,.68-2,2.57,2.57,0,0,0,0-.42,3.69,3.69,0,0,0-.92-2.46,3,3,0,0,0-2.41-1.08,2.71,2.71,0,0,0-2.34,1.21,5,5,0,0,0-.85,3h-3.75a7.34,7.34,0,0,1,1.86-5.16,6.5,6.5,0,0,1,5.05-2,6.67,6.67,0,0,1,4.86,1.94,6.53,6.53,0,0,1,2,4.86q0,2.74-4.2,7.64l-3.58,4.17h7.91Z" transform="translate(-575.45 -3186.23)"/><path class="868f046e-c2db-4cd8-a70a-6719474a04d3" d="M598,3201.2l-0.83,3.78,1.63-.07a6.26,6.26,0,0,1,4.91,2.13,7.55,7.55,0,0,1,1.89,5.19,7.35,7.35,0,0,1-2.12,5.48,7.58,7.58,0,0,1-5.55,2.08,7.92,7.92,0,0,1-6.25-2.78l1-3.05a5.92,5.92,0,0,0,4.93,2.81,4.18,4.18,0,0,0,3.07-1.27,4.64,4.64,0,0,0,1.27-3.44,4.37,4.37,0,0,0-1.32-3.38,4.73,4.73,0,0,0-3.33-1.21,4.29,4.29,0,0,0-3.3,1.39H593.4l2.19-10.69h9.16v3H598Z" transform="translate(-575.45 -3186.23)"/><path class="868f046e-c2db-4cd8-a70a-6719474a04d3" d="M615.65,3208.38a3.38,3.38,0,0,0-2.33-1,1.55,1.55,0,0,0-1.84,1.67q0,0.94,1.67,1.53,3.05,1.11,3.78,2a3.54,3.54,0,0,1,.73,2.27,4.42,4.42,0,0,1-1.54,3.54,5.65,5.65,0,0,1-3.8,1.32,6,6,0,0,1-4.83-2.29l1.49-1.91a4.82,4.82,0,0,0,3.19,1.74,1.84,1.84,0,0,0,2.12-2,1.64,1.64,0,0,0-1.11-1.54q-1.11-.5-1.7-0.75-3.19-1.39-3.19-3.37a4.41,4.41,0,0,1,1.2-3.21,4.18,4.18,0,0,1,3.14-1.23,6.48,6.48,0,0,1,4.41,1.42Z" transform="translate(-575.45 -3186.23)"/><path class="868f046e-c2db-4cd8-a70a-6719474a04d3" d="M623.15,3206.78a5.4,5.4,0,0,1,4.34-1.7,5.6,5.6,0,0,1,4.5,2.15,7.69,7.69,0,0,1,1.79,5.07,8,8,0,0,1-1.77,5.28,5.7,5.7,0,0,1-4.58,2.12q-3,0-4.2-1.74l-0.07,7.08h-3.37v-19.51h3.37v1.25Zm7.19,5.59a4.88,4.88,0,0,0-1-3.07,3.32,3.32,0,0,0-2.78-1.3,3.35,3.35,0,0,0-2.71,1.32,4.76,4.76,0,0,0,.07,6.11,3.47,3.47,0,0,0,5.42.1A4.87,4.87,0,0,0,630.34,3212.37Z" transform="translate(-575.45 -3186.23)"/><path class="868f046e-c2db-4cd8-a70a-6719474a04d3" d="M638.94,3207a4.54,4.54,0,0,1,4-1.87,3.67,3.67,0,0,1,1.6.35l-0.42,3.05a3,3,0,0,0-1.67-.49q-3.54,0-3.54,5.07v6.18h-3.37v-13.71h3.37V3207Z" transform="translate(-575.45 -3186.23)"/><path class="868f046e-c2db-4cd8-a70a-6719474a04d3" d="M659.29,3212.37a7.28,7.28,0,0,1-2,5.28,6.89,6.89,0,0,1-5.19,2,7,7,0,0,1-5.22-2,7.18,7.18,0,0,1-2-5.26,7.26,7.26,0,0,1,2-5.26,6.91,6.91,0,0,1,5.21-2,7,7,0,0,1,5.22,2A7.19,7.19,0,0,1,659.29,3212.37Zm-11,.05a4.56,4.56,0,0,0,1.08,3.14,3.54,3.54,0,0,0,2.78,1.21,3.29,3.29,0,0,0,2.73-1.3,4.85,4.85,0,0,0,1-3.09,4.8,4.8,0,0,0-1-3.09,3.32,3.32,0,0,0-2.73-1.3,3.48,3.48,0,0,0-2.76,1.25A4.69,4.69,0,0,0,648.28,3212.43Z" transform="translate(-575.45 -3186.23)"/><path class="868f046e-c2db-4cd8-a70a-6719474a04d3" d="M664.42,3205.54V3213q0,4,2.78,4t2.78-4v-7.43h3.37v8.05q0,6.11-6.14,6.11t-6.14-6.11v-8.05h3.37Z" transform="translate(-575.45 -3186.23)"/><path class="868f046e-c2db-4cd8-a70a-6719474a04d3" d="M682.9,3216.83v2.41a10.94,10.94,0,0,1-2.14.3,4.37,4.37,0,0,1-2.14-.5,3,3,0,0,1-1.31-1.36,6.42,6.42,0,0,1-.41-2.65V3208h-1.71v-2.4h1.89l0.28-3.57,2.54-.23v3.8h2.75v2.4h-2.75v6.68a2.49,2.49,0,0,0,.47,1.76,2.52,2.52,0,0,0,1.77.47Z" transform="translate(-575.45 -3186.23)"/><path class="868f046e-c2db-4cd8-a70a-6719474a04d3" d="M688.87,3217.66a2,2,0,0,1-.57,1.43,1.86,1.86,0,0,1-1.4.6,2,2,0,1,1,0-4,2,2,0,0,1,1.4.56A1.84,1.84,0,0,1,688.87,3217.66Z" transform="translate(-575.45 -3186.23)"/><path class="868f046e-c2db-4cd8-a70a-6719474a04d3" d="M679.89,3205.56s0-9.7,1-12.27c0.77-1.88-.37-1.83-0.37-1.83-2.59,3-3.15,9.85-3.2,10.53-0.07.9-.24,3.57-0.24,3.57" transform="translate(-575.45 -3186.23)"/><path class="868f046e-c2db-4cd8-a70a-6719474a04d3" d="M669.48,3187.36c1.57,0.56,3.63-.14,5.31.07,2.19,0.27,5.44,2.11,5.15,4.69a0.37,0.37,0,0,0,.23.41h0.07c0.56,0.12,1.24-1,.62-1.11h-0.07c-0.56-.12-1.24,1-0.62,1.11h0.07c0.56,0.12,1.24-1,.62-1.11,0.71,0.15-.38-2-0.52-2.21a7.15,7.15,0,0,0-2.3-2,7.64,7.64,0,0,0-3.53-1c-1.27-.07-3.21.45-4.41,0-0.54-.19-1.23.89-0.62,1.11h0Z" transform="translate(-575.45 -3186.23)"/><path class="868f046e-c2db-4cd8-a70a-6719474a04d3" d="M669.56,3187.09a8.85,8.85,0,0,0,10.16,6c0.58-.1.88-1.24,0.1-1.11a8.11,8.11,0,0,1-9.19-5.42c-0.22-.69-1.24,0-1.07.56h0Z" transform="translate(-575.45 -3186.23)"/><path class="868f046e-c2db-4cd8-a70a-6719474a04d3" d="M670.3,3187.69c1.87,0.8,3.74,1.58,5.61,2.38a12.87,12.87,0,0,1,2.59,1.46,5.54,5.54,0,0,0,1.41,1c0.54,0.19,1.23-.89.62-1.11a7.42,7.42,0,0,1-1.6-1.14,14.06,14.06,0,0,0-2.41-1.28l-5.61-2.38c-0.53-.22-1.22.85-0.62,1.11h0Z" transform="translate(-575.45 -3186.23)"/><path class="868f046e-c2db-4cd8-a70a-6719474a04d3" d="M680.77,3191.86c2.14-.49,4.32-1.13,6.27.28a8.07,8.07,0,0,1,2.45,3c0.27,0.58,1.23-.27,1-0.8a8.2,8.2,0,0,0-3.26-3.57c-2.06-1.11-4.21-.47-6.35,0-0.57.13-.87,1.29-0.1,1.11h0Z" transform="translate(-575.45 -3186.23)"/><path class="868f046e-c2db-4cd8-a70a-6719474a04d3" d="M680.26,3191.72c-0.39,2,1.7,3.16,3.38,3.63a11.74,11.74,0,0,0,4.06.09,4.4,4.4,0,0,0,2.36-.43c0.59-.41.25-1.31-0.45-0.82a5,5,0,0,1-1.79.12,11.14,11.14,0,0,1-3.41,0c-1.33-.31-3.4-1.19-3.08-2.85,0.15-.76-1-0.27-1.08.29h0Z" transform="translate(-575.45 -3186.23)"/><path class="868f046e-c2db-4cd8-a70a-6719474a04d3" d="M680.63,3192.43a6,6,0,0,0,3.41,1c1.81,0.18,3.21,1.32,5,1.64,0.56,0.1,1.23-1,.62-1.11-1.5-.27-2.71-1.25-4.19-1.54s-2.82,0-4-.93c-0.48-.38-1.3.62-0.83,1h0Z" transform="translate(-575.45 -3186.23)"/><text x="-575.45" y="-3186.23"/></svg>